<?xml version="1.0" encoding="UTF-8"?>
<svg xmlns="http://www.w3.org/2000/svg" viewBox="0 0 1180 610" width="1180" height="610">
<defs>
<linearGradient id="bg"><stop offset="0%" stop-color="#030712"/><stop offset="100%" stop-color="#0F172A"/></linearGradient>
<linearGradient id="acc" x1="0" x2="1">
<stop offset="0%" stop-color="#7C3AED"/>
<stop offset="50%" stop-color="#22D3EE"/>
<stop offset="100%" stop-color="#10B981"/>
<animateTransform attributeName="gradientTransform" type="translate" values="-1 0;1 0;-1 0" dur="8s" repeatCount="indefinite"/>
</linearGradient>
<filter id="g"><feGaussianBlur stdDeviation="5"/></filter>
</defs>
<rect width="1180" height="610" rx="28" fill="url(#bg)"/>
<circle cx="170" cy="120" r="120" fill="#22D3EE" opacity=".08"><animate attributeName="cx" values="170;230;170" dur="10s" repeatCount="indefinite"/></circle>
<circle cx="980" cy="470" r="150" fill="#7C3AED" opacity=".08"><animate attributeName="cy" values="470;420;470" dur="12s" repeatCount="indefinite"/></circle>
<g transform="translate(55,55)">
<rect width="360" height="500" rx="22" fill="#0B1220" stroke="url(#acc)"/>
<g font-family="monospace" font-size="14" fill="url(#acc)">
<text x="28" y="55">      .-^^^^-.<animate attributeName="opacity" values="0;1" begin="0.0s" dur=".3s" fill="freeze"/></text><text x="28" y="77">    .'  .-.  '.<animate attributeName="opacity" values="0;1" begin="0.2s" dur=".3s" fill="freeze"/></text><text x="28" y="99">   /   (o o)   \\<animate attributeName="opacity" values="0;1" begin="0.4s" dur=".3s" fill="freeze"/></text><text x="28" y="121">  |      ^      |<animate attributeName="opacity" values="0;1" begin="0.6000000000000001s" dur=".3s" fill="freeze"/></text><text x="28" y="143">  |    \___/    |<animate attributeName="opacity" values="0;1" begin="0.8s" dur=".3s" fill="freeze"/></text><text x="28" y="165">   \\   ---    /<animate attributeName="opacity" values="0;1" begin="1.0s" dur=".3s" fill="freeze"/></text><text x="28" y="187">    '.___.__.'<animate attributeName="opacity" values="0;1" begin="1.2000000000000002s" dur=".3s" fill="freeze"/></text><text x="28" y="209"><animate attributeName="opacity" values="0;1" begin="1.4000000000000001s" dur=".3s" fill="freeze"/></text><text x="28" y="231">   AI DEVELOPER<animate attributeName="opacity" values="0;1" begin="1.6s" dur=".3s" fill="freeze"/></text><rect x="0" y="0" width="360" height="8" fill="#fff" opacity=".05"><animate attributeName="y" values="0;500;0" dur="4s" repeatCount="indefinite"/></rect></g></g>
<g transform="translate(450,55)">
<rect width="675" height="500" rx="22" fill="#0F172A" fill-opacity=".9" stroke="#334155"/>
<text x="30" y="50" fill="#F8FAFC" font-size="30">Hi 👋</text>
<text x="30" y="90" fill="#F8FAFC" font-size="42" font-weight="700">I'm Anfas K P</text>
<text x="30" y="130" fill="url(#acc)" font-size="22" font-family="monospace">AI &amp; Django Developer<tspan><animate attributeName="opacity" values="1;0;1" dur="1s" repeatCount="indefinite"/>█</tspan></text>
<text x="30" y="180" fill="#94A3B8" font-size="18">📍 Malappuram, Kerala, India<animate attributeName="opacity" values="0;1" begin="1.0s" dur=".3s" fill="freeze"/></text><text x="30" y="210" fill="#94A3B8" font-size="18">🎓 B.Sc Physics • Diploma in AI Data Engineering<animate attributeName="opacity" values="0;1" begin="1.2s" dur=".3s" fill="freeze"/></text><text x="30" y="240" fill="#94A3B8" font-size="18">🚀 AI-powered Speech Therapy Platform (ZLAQA AI)<animate attributeName="opacity" values="0;1" begin="1.4s" dur=".3s" fill="freeze"/></text><text x="30" y="270" fill="#94A3B8" font-size="18">🌐 github.com/anfas-kp<animate attributeName="opacity" values="0;1" begin="1.6s" dur=".3s" fill="freeze"/></text><text x="30" y="300" fill="#94A3B8" font-size="18">✉️ anfasanu178@gmail.com<animate attributeName="opacity" values="0;1" begin="1.8s" dur=".3s" fill="freeze"/></text><g transform="translate(30,340)"><rect width="80" height="30" rx="15" fill="#162033" stroke="url(#acc)"/><text x="14" y="20" fill="#F8FAFC" font-size="14">Python</text></g><g transform="translate(120,340)"><rect width="80" height="30" rx="15" fill="#162033" stroke="url(#acc)"/><text x="14" y="20" fill="#F8FAFC" font-size="14">Django</text></g><g transform="translate(210,340)"><rect width="89" height="30" rx="15" fill="#162033" stroke="url(#acc)"/><text x="14" y="20" fill="#F8FAFC" font-size="14">FastAPI</text></g><g transform="translate(309,340)"><rect width="71" height="30" rx="15" fill="#162033" stroke="url(#acc)"/><text x="14" y="20" fill="#F8FAFC" font-size="14">Flask</text></g><g transform="translate(390,340)"><rect width="116" height="30" rx="15" fill="#162033" stroke="url(#acc)"/><text x="14" y="20" fill="#F8FAFC" font-size="14">TensorFlow</text></g><g transform="translate(516,340)"><rect width="89" height="30" rx="15" fill="#162033" stroke="url(#acc)"/><text x="14" y="20" fill="#F8FAFC" font-size="14">PyTorch</text></g><g transform="translate(30,380)"><rect width="71" height="30" rx="15" fill="#162033" stroke="url(#acc)"/><text x="14" y="20" fill="#F8FAFC" font-size="14">React</text></g><g transform="translate(111,380)"><rect width="98" height="30" rx="15" fill="#162033" stroke="url(#acc)"/><text x="14" y="20" fill="#F8FAFC" font-size="14">Tailwind</text></g><g transform="translate(219,380)"><rect width="80" height="30" rx="15" fill="#162033" stroke="url(#acc)"/><text x="14" y="20" fill="#F8FAFC" font-size="14">Docker</text></g><g transform="translate(309,380)"><rect width="98" height="30" rx="15" fill="#162033" stroke="url(#acc)"/><text x="14" y="20" fill="#F8FAFC" font-size="14">Postgres</text></g><g transform="translate(417,380)"><rect width="71" height="30" rx="15" fill="#162033" stroke="url(#acc)"/><text x="14" y="20" fill="#F8FAFC" font-size="14">Redis</text></g><g transform="translate(498,380)"><rect width="53" height="30" rx="15" fill="#162033" stroke="url(#acc)"/><text x="14" y="20" fill="#F8FAFC" font-size="14">Git</text></g><g transform="translate(561,380)"><rect width="71" height="30" rx="15" fill="#162033" stroke="url(#acc)"/><text x="14" y="20" fill="#F8FAFC" font-size="14">Linux</text></g><g transform="translate(30,420)"><rect width="71" height="30" rx="15" fill="#162033" stroke="url(#acc)"/><text x="14" y="20" fill="#F8FAFC" font-size="14">Figma</text></g><text x="30" y="470" fill="#22D3EE" font-size="18">GitHub • LinkedIn • Portfolio • Email</text></g></svg>